<?xml version="1.0" encoding="UTF-8"?>
<svg id="Layer_1" xmlns="http://www.w3.org/2000/svg" xmlns:xlink="http://www.w3.org/1999/xlink" version="1.1" viewBox="0 0 255.56 77.11">
  <!-- Generator: Adobe Illustrator 29.7.1, SVG Export Plug-In . SVG Version: 2.1.1 Build 8)  -->
  <defs>
    <style>
      .st0 {
        fill: #292929;
      }

      .st1 {
        fill: url(#linear-gradient);
      }

      .st2 {
        fill: none;
        stroke: #292929;
        stroke-miterlimit: 10;
        stroke-width: 4.04px;
      }
    </style>
    <linearGradient id="linear-gradient" x1="-217.12" y1="157.94" x2="-179.73" y2="157.94" gradientTransform="translate(95.54 -208.6) rotate(-35.98)" gradientUnits="userSpaceOnUse">
      <stop offset=".02" stop-color="#fff"/>
      <stop offset=".4" stop-color="#cce0f4"/>
      <stop offset=".48" stop-color="#c6daea"/>
      <stop offset=".6" stop-color="#b9cdd1"/>
      <stop offset=".75" stop-color="#a3b6a7"/>
      <stop offset=".93" stop-color="#85986e"/>
      <stop offset=".99" stop-color="#7a8d5a"/>
    </linearGradient>
  </defs>
  <g>
    <path class="st0" d="M73.5,48.67v-21.88h-6.76v-5.47h6.76v-10.33h7.75v10.33h11.62v5.47h-11.62v20.66c0,2.23.54,3.87,1.63,4.94,1.09,1.06,2.75,1.6,4.98,1.6,1.52,0,3.24-.25,5.17-.76v6.15c-2.43.66-4.96.99-7.6.99-7.95,0-11.93-3.9-11.93-11.7Z"/>
    <path class="st0" d="M102.89,48.67v-21.88h-6.76v-5.47h6.76v-10.33h7.75v10.33h11.62v5.47h-11.62v20.66c0,2.23.54,3.87,1.63,4.94,1.09,1.06,2.75,1.6,4.98,1.6,1.52,0,3.24-.25,5.17-.76v6.15c-2.43.66-4.96.99-7.6.99-7.95,0-11.93-3.9-11.93-11.7Z"/>
    <path class="st0" d="M130.77,55.17c-3.09-3.47-4.63-8.32-4.63-14.55s1.61-11.12,4.82-14.66c3.21-3.54,7.71-5.32,13.48-5.32s9.82,1.67,12.76,5.01c2.94,3.34,4.41,8.1,4.41,14.28v1.6h-27.57c.3,8.71,3.8,13.07,10.48,13.07,2.58,0,4.66-.62,6.23-1.86,1.57-1.24,2.61-2.97,3.11-5.2h7.44c-.61,3.95-2.39,7.08-5.36,9.38-2.96,2.3-6.9,3.46-11.81,3.46-5.82,0-10.28-1.73-13.37-5.2ZM153.94,36.82c-.3-3.54-1.28-6.23-2.92-8.05-1.65-1.82-3.94-2.73-6.87-2.73s-5.15.91-6.8,2.73c-1.65,1.82-2.67,4.51-3.08,8.05h19.67Z"/>
    <path class="st0" d="M171.26,55.09c-3.19-3.52-4.79-8.39-4.79-14.62s1.61-11.1,4.82-14.62c3.21-3.52,7.73-5.28,13.56-5.28s10.39,1.76,13.56,5.28c3.16,3.52,4.75,8.39,4.75,14.62s-1.58,11.17-4.75,14.66c-3.17,3.49-7.69,5.24-13.56,5.24s-10.41-1.76-13.6-5.28ZM192.76,50.84c1.77-2.46,2.66-5.91,2.66-10.37s-.89-7.9-2.66-10.33c-1.77-2.43-4.38-3.65-7.82-3.65s-6.09,1.23-7.94,3.68c-1.85,2.46-2.77,5.89-2.77,10.29s.92,7.91,2.77,10.37c1.85,2.46,4.49,3.68,7.94,3.68s6.05-1.23,7.82-3.68Z"/>
    <path class="st0" d="M209.32,4.99h7.75v32.59h1.14l.91-1.97,14.74-14.28h8.74v1.14l-17.24,17.17,17.55,18.99v1.06h-8.81l-15.12-15.88-.76-1.9h-1.14v17.78h-7.75V4.99Z"/>
  </g>
  <line class="st2" x1="2.71" y1="35.24" x2="2.71" y2="63.2"/>
  <line class="st2" x1="1.58" y1="61.16" x2="52.7" y2="61.16"/>
  <circle class="st1" cx="27.76" cy="35.79" r="18.7"/>
  <line class="st2" x1="17.76" y1="9.31" x2="17.76" y2="35.24"/>
  <line class="st2" x1="2.71" y1="8.41" x2="2.71" y2="37.04"/>
  <line class="st2" x1="1.58" y1="10.41" x2="52.72" y2="10.41"/>
  <line class="st2" x1="1.58" y1="34.08" x2="50.69" y2="34.08"/>
  <line class="st2" x1="50.69" y1="9.31" x2="50.69" y2="35.24"/>
  <line class="st2" x1="50.69" y1="35.24" x2="50.69" y2="62.29"/>
  <line class="st2" x1="35.88" y1="34.84" x2="35.88" y2="61.88"/>
  <line class="st2" x1="29.82" y1="22.27" x2="50.31" y2="22.27"/>
  <rect class="st0" x="248.38" y="53.01" width="7.18" height="7.18"/>
</svg>