<?xml version="1.0" encoding="UTF-8"?><svg id="Layer_1" xmlns="http://www.w3.org/2000/svg" viewBox="0 0 1930.98 335"><defs><style>.cls-1{fill:#68564b;}.cls-2{fill:none;stroke:#fff;stroke-linecap:round;stroke-linejoin:round;stroke-width:20.61px;}</style></defs><rect class="cls-1" x="14.14" y="10.3" width="306.78" height="306.78" rx="17.55" ry="17.55"/><path class="cls-2" d="M324.7,167.5c-141.64,8.61-148.59,15.55-157.2,157.2-8.61-141.64-15.55-148.59-157.2-157.2,141.64-8.61,148.59-15.55,157.2-157.2,8.61,141.64,15.55,148.59,157.2,157.2Z"/><path class="cls-1" d="M395.01,98.14h39.2l32.73,81.2,32.73-81.2h37.63v127.4h-28.88v-92.4l-36.93,92.4h-14l-36.75-91.88v91.88h-25.73v-127.4Z"/><path class="cls-1" d="M560.39,98.14h29.4v127.4h-29.4v-127.4Z"/><path class="cls-1" d="M607.11,210.14l6.47-20.48c8.58,7,25.38,14.88,42,14.88,12.95,0,21.18-5.95,21.18-14.88,0-8.22-7.18-11.9-20.13-14.88l-4.2-.88c-30.62-6.83-42.88-16.62-42.88-37.1,0-26.6,20.83-40.78,48.48-40.78,20.48,0,36.4,7.88,45.5,15.22l-6.48,20.65c-9.8-7.7-24.68-12.77-36.93-12.77s-19.95,5.6-19.95,14.17,7.7,11.73,19.95,14.35l4.55,1.05c29.58,6.3,42.7,16.62,42.7,37.98,0,26.6-21.17,40.95-49.88,40.95-22.75,0-41.65-9.1-50.4-17.5Z"/><path class="cls-1" d="M719.29,210.14l6.47-20.48c8.58,7,25.38,14.88,42,14.88,12.95,0,21.18-5.95,21.18-14.88,0-8.22-7.18-11.9-20.13-14.88l-4.2-.88c-30.62-6.83-42.88-16.62-42.88-37.1,0-26.6,20.83-40.78,48.48-40.78,20.48,0,36.4,7.88,45.5,15.22l-6.48,20.65c-9.8-7.7-24.68-12.77-36.93-12.77s-19.95,5.6-19.95,14.17,7.7,11.73,19.95,14.35l4.55,1.05c29.58,6.3,42.7,16.62,42.7,37.98,0,26.6-21.17,40.95-49.88,40.95-22.75,0-41.65-9.1-50.4-17.5Z"/><path class="cls-1" d="M866.81,210.14l6.47-20.48c8.58,7,25.38,14.88,42,14.88,12.95,0,21.18-5.95,21.18-14.88,0-8.22-7.18-11.9-20.13-14.88l-4.2-.88c-30.62-6.83-42.88-16.62-42.88-37.1,0-26.6,20.83-40.78,48.48-40.78,20.48,0,36.4,7.88,45.5,15.22l-6.48,20.65c-9.8-7.7-24.68-12.77-36.93-12.77s-19.95,5.6-19.95,14.17,7.7,11.73,19.95,14.35l4.55,1.05c29.58,6.3,42.7,16.62,42.7,37.98,0,26.6-21.17,40.95-49.88,40.95-22.75,0-41.65-9.1-50.4-17.5Z"/><path class="cls-1" d="M984.76,98.14h27.65l60.55,79.28v-79.28h26.25v127.4h-25.2l-63-82.43v82.43h-26.25v-127.4Z"/><path class="cls-1" d="M1117.06,161.84c0-38.85,28.35-65.8,68.43-65.8s68.43,26.95,68.43,65.8-28.35,65.8-68.43,65.8-68.43-26.95-68.43-65.8ZM1185.48,204.37c22.23,0,37.1-17.85,37.1-42.53s-14.88-42.53-37.1-42.53-37.1,17.85-37.1,42.53,14.88,42.53,37.1,42.53Z"/><path class="cls-1" d="M1257.93,98.14h30.1l23.1,91.35,22.92-91.35h27.13l21.88,91.7,22.75-91.7h27.48l-36.4,127.4h-28.7l-22.05-91.88-23.1,91.88h-28.7l-36.4-127.4Z"/><path class="cls-1" d="M1473.18,161.84c0-38.85,26.95-65.8,65.28-65.8,29.93,0,51.98,15.92,61.08,40.95l-25.73,7.53c-5.42-15.75-17.67-26.08-33.78-26.08-20.83,0-36.58,16.45-36.58,39.9s14.88,43.05,41.48,43.05c18.9,0,32.73-9.45,41.48-21.35l15.05,10.5c-10.85,22.58-34.3,37.1-62.83,37.1-38.67,0-65.45-26.95-65.45-65.8Z"/><path class="cls-1" d="M1646.43,98.14h33.43l45.5,127.4h-30.8l-7.88-24.68h-50.58l-8.05,24.68h-27.13l45.5-127.4ZM1679.68,179.17l-18.38-56.88-18.2,56.88h36.58Z"/><path class="cls-1" d="M1738.31,98.14h86.45v23.45h-57.05v31.15h51.8v22.58h-51.8v50.23h-29.4v-127.4Z"/><path class="cls-1" d="M1840.68,98.14h88.55v23.28h-59.15v28h53.9v22.4h-53.9v30.45h60.9v23.28h-90.3v-127.4ZM1886.88,62.79h26.43l-22.58,26.95h-17.68l13.83-26.95Z"/></svg>